<svg width="21" transform="rotate(-45)" height="21" viewBox="0 0 11 21" fill="none"  xmlns="http://www.w3.org/2000/svg">
<path d="M9.47963 4.74418V15.5188C9.47963 17.5894 7.85235 19.2665 5.84326 19.2665C3.83417 19.2665 2.2069 17.5894 2.2069 15.5188V3.80726C2.2069 2.51431 3.22508 1.46495 4.47963 1.46495C5.73417 1.46495 6.75235 2.51431 6.75235 3.80726V13.645C6.75235 14.1603 6.34326 14.5819 5.84326 14.5819C5.34326 14.5819 4.93417 14.1603 4.93417 13.645V4.74418H3.57053V13.645C3.57053 14.9379 4.58872 15.9873 5.84326 15.9873C7.09781 15.9873 8.11599 14.9379 8.11599 13.645V3.80726C8.11599 1.73666 6.48872 0.0595703 4.47963 0.0595703C2.47053 0.0595703 0.843262 1.73666 0.843262 3.80726V15.5188C0.843262 18.367 3.07963 20.6719 5.84326 20.6719C8.6069 20.6719 10.8433 18.367 10.8433 15.5188V4.74418H9.47963Z" fill="black"/>
</svg>
